<?xml version="1.0" standalone="no"?>
<!DOCTYPE svg PUBLIC "-//W3C//DTD SVG 20010904//EN"
 "http://www.w3.org/TR/2001/REC-SVG-20010904/DTD/svg10.dtd">
<svg version="1.0" xmlns="http://www.w3.org/2000/svg"
 width="984.000000pt" height="984.000000pt" viewBox="0 0 984.000000 984.000000"
 preserveAspectRatio="xMidYMid meet">
<metadata>
Created by potrace 1.14, written by Peter Selinger 2001-2017
</metadata>
<g transform="translate(0.000000,984.000000) scale(0.100000,-0.100000)"
fill="#000000" stroke="none">
<path d="M2565 9823 c-45 -23 -85 -64 -102 -103 -13 -31 -15 -431 -15 -3617
l-1 -3582 27 -46 c15 -25 46 -58 68 -73 l42 -27 745 -1 746 -1 0 -157 0 -158
-55 -19 c-79 -27 -175 -76 -250 -127 -75 -51 -222 -197 -264 -262 -16 -25 -38
-58 -49 -73 -10 -16 -20 -34 -21 -40 -1 -7 -6 -19 -11 -27 -6 -8 -22 -46 -36
-85 l-27 -70 -753 -2 c-415 -1 -757 -2 -761 -2 -5 -1 -8 -131 -8 -289 l0 -288
743 1 c408 0 750 -3 759 -7 9 -4 22 -25 28 -45 24 -80 56 -145 119 -243 139
-216 369 -383 615 -444 99 -25 139 -30 266 -30 102 0 152 4 225 18 112 22 295
107 398 185 83 63 208 190 234 238 10 18 21 33 25 33 5 0 8 4 8 9 0 5 15 35
33 68 37 65 90 203 79 204 -4 0 1 3 10 7 10 4 605 7 1323 7 l1305 -1 0 288 0
288 -27 1 c-16 0 -609 0 -1320 0 l-1291 1 -7 26 c-12 51 -69 167 -121 247 -91
139 -222 261 -364 339 -82 44 -207 96 -214 88 -7 -6 -7 8 -8 186 0 67 2 125 5
128 3 3 389 6 859 7 532 1 859 6 868 12 8 5 20 10 26 11 15 2 43 30 74 74 l24
34 1 3590 c1 3499 0 3592 -18 3630 -22 46 -45 72 -84 95 -26 15 -183 16 -1923
18 -1710 2 -1898 1 -1925 -14z m3226 -823 c0 -5 0 -100 0 -210 0 -110 0 -215
0 -234 l-1 -33 -1308 -1 -1309 0 0 244 -1 244 1309 0 c866 0 1309 -3 1310 -10z
m0 -1373 c1 -47 1 -387 0 -424 l-1 -33 -1308 0 -1309 0 0 238 c0 130 1 240 3
244 3 3 591 6 1309 6 l1305 0 1 -31z m0 -1331 c4 -73 1 -468 -4 -473 -4 -3
-593 -6 -1310 -7 l-1304 -1 0 240 c0 132 1 242 3 245 6 11 2614 7 2615 -4z
m-1211 -1747 c80 -22 188 -84 252 -144 72 -69 142 -193 164 -292 18 -84 6
-255 -23 -323 -3 -8 -7 -17 -8 -20 -54 -156 -243 -315 -417 -350 -165 -33
-365 13 -478 110 -98 83 -117 108 -169 216 -30 61 -34 72 -49 149 -23 118 7
276 75 392 40 69 148 173 220 211 130 68 294 88 433 51z m-40 -3063 c86 -35
171 -103 218 -172 11 -16 49 -96 53 -109 0 -2 6 -24 13 -47 19 -63 13 -192
-12 -261 -52 -146 -163 -252 -310 -297 -40 -12 -79 -20 -87 -16 -8 3 -17 1
-20 -4 -3 -5 -11 -7 -18 -5 -7 2 -40 6 -75 10 -35 3 -71 9 -80 14 -102 48
-142 74 -188 120 -30 29 -54 57 -54 61 0 5 -6 15 -13 22 -18 18 -55 114 -64
163 -16 98 6 251 44 296 7 8 13 19 13 23 0 15 66 93 102 121 21 17 44 35 51
40 20 18 82 44 138 59 80 22 210 14 289 -18z"/>
</g>
</svg>
